STARTFONT 2.1
FONT -Monotype-Bembo-Medium-I-Normal--8-80-72-72-P-41-ISO8859-1
SIZE 8 72 72
FONTBOUNDINGBOX 11 10 -2 -2

STARTPROPERTIES 22
FONTNAME_REGISTRY "-"
FOUNDRY "Monotype"
FAMILY_NAME "Bembo"
WEIGHT_NAME "Medium"
SLANT "I"
SETWIDTH_NAME "Normal"
ADD_STYLE_NAME ""
PIXEL_SIZE 8
POINT_SIZE 80
RESOLUTION_X 72
RESOLUTION_Y 72
SPACING "P"
CHARSET_REGISTRY "ISO8859"
CHARSET_ENCODING "1"
FULL_NAME "Bembo-Italic"
AVERAGE_WIDTH 41
WEIGHT 10
X_HEIGHT 4
QUAD_WIDTH 5
DEFAULT_CHAR 32
FONT_DESCENT 2
FONT_ASCENT 7
ENDPROPERTIES

CHARS 190

STARTCHAR space
ENCODING 32
SWIDTH 278 0
DWIDTH 2 0
BBX 1 1 0 0
BITMAP
00
ENDCHAR

STARTCHAR exclam
ENCODING 33
SWIDTH 292 0
DWIDTH 2 0
BBX 2 6 1 0
BITMAP
40
40
40
40
40
80
ENDCHAR

STARTCHAR quotedbl
ENCODING 34
SWIDTH 417 0
DWIDTH 3 0
BBX 2 2 1 4
BITMAP
C0
C0
ENDCHAR

STARTCHAR numbersign
ENCODING 35
SWIDTH 668 0
DWIDTH 5 0
BBX 5 7 1 -1
BITMAP
50
50
F8
50
F8
90
A0
ENDCHAR

STARTCHAR dollar
ENCODING 36
SWIDTH 458 0
DWIDTH 4 0
BBX 3 7 1 -1
BITMAP
20
60
60
40
C0
E0
80
ENDCHAR

STARTCHAR percent
ENCODING 37
SWIDTH 823 0
DWIDTH 7 0
BBX 6 6 1 0
BITMAP
CC
C8
DC
2C
4C
88
ENDCHAR

STARTCHAR ampersand
ENCODING 38
SWIDTH 708 0
DWIDTH 6 0
BBX 5 6 1 0
BITMAP
70
50
48
98
B0
70
ENDCHAR

STARTCHAR quoteright
ENCODING 39
SWIDTH 292 0
DWIDTH 2 0
BBX 1 2 1 4
BITMAP
80
80
ENDCHAR

STARTCHAR parenleft
ENCODING 40
SWIDTH 281 0
DWIDTH 2 0
BBX 2 8 1 -2
BITMAP
40
40
80
80
80
80
80
80
ENDCHAR

STARTCHAR parenright
ENCODING 41
SWIDTH 281 0
DWIDTH 2 0
BBX 2 8 0 -2
BITMAP
40
40
40
40
40
40
80
80
ENDCHAR

STARTCHAR asterisk
ENCODING 42
SWIDTH 500 0
DWIDTH 4 0
BBX 4 4 1 1
BITMAP
20
F0
C0
20
ENDCHAR

STARTCHAR plus
ENCODING 43
SWIDTH 667 0
DWIDTH 5 0
BBX 5 5 0 0
BITMAP
20
20
F8
20
20
ENDCHAR

STARTCHAR comma
ENCODING 44
SWIDTH 292 0
DWIDTH 2 0
BBX 1 2 1 -2
BITMAP
80
80
ENDCHAR

STARTCHAR minus
ENCODING 45
SWIDTH 667 0
DWIDTH 5 0
BBX 4 1 1 2
BITMAP
F0
ENDCHAR

STARTCHAR period
ENCODING 46
SWIDTH 292 0
DWIDTH 2 0
BBX 1 1 1 0
BITMAP
80
ENDCHAR

STARTCHAR slash
ENCODING 47
SWIDTH 458 0
DWIDTH 2 0
BBX 4 8 0 -2
BITMAP
30
20
20
40
40
40
80
80
ENDCHAR

STARTCHAR zero
ENCODING 48
SWIDTH 510 0
DWIDTH 4 0
BBX 3 6 1 0
BITMAP
60
A0
A0
A0
A0
C0
ENDCHAR

STARTCHAR one
ENCODING 49
SWIDTH 510 0
DWIDTH 4 0
BBX 2 6 1 0
BITMAP
40
C0
40
40
80
C0
ENDCHAR

STARTCHAR two
ENCODING 50
SWIDTH 510 0
DWIDTH 4 0
BBX 4 6 0 0
BITMAP
60
50
20
20
60
E0
ENDCHAR

STARTCHAR three
ENCODING 51
SWIDTH 510 0
DWIDTH 4 0
BBX 3 6 0 0
BITMAP
60
A0
60
20
20
C0
ENDCHAR

STARTCHAR four
ENCODING 52
SWIDTH 510 0
DWIDTH 4 0
BBX 3 6 1 0
BITMAP
20
20
60
E0
20
40
ENDCHAR

STARTCHAR five
ENCODING 53
SWIDTH 510 0
DWIDTH 4 0
BBX 4 6 1 0
BITMAP
70
40
60
20
20
C0
ENDCHAR

STARTCHAR six
ENCODING 54
SWIDTH 510 0
DWIDTH 4 0
BBX 4 6 1 0
BITMAP
30
40
E0
A0
A0
C0
ENDCHAR

STARTCHAR seven
ENCODING 55
SWIDTH 510 0
DWIDTH 4 0
BBX 3 6 1 0
BITMAP
E0
A0
40
40
40
80
ENDCHAR

STARTCHAR eight
ENCODING 56
SWIDTH 510 0
DWIDTH 4 0
BBX 3 6 1 0
BITMAP
60
60
60
A0
A0
C0
ENDCHAR

STARTCHAR nine
ENCODING 57
SWIDTH 510 0
DWIDTH 4 0
BBX 4 6 1 0
BITMAP
60
50
50
60
20
C0
ENDCHAR

STARTCHAR colon
ENCODING 58
SWIDTH 292 0
DWIDTH 2 0
BBX 1 4 1 0
BITMAP
80
00
00
80
ENDCHAR

STARTCHAR semicolon
ENCODING 59
SWIDTH 292 0
DWIDTH 2 0
BBX 2 5 0 -1
BITMAP
40
00
80
80
80
ENDCHAR

STARTCHAR less
ENCODING 60
SWIDTH 667 0
DWIDTH 5 0
BBX 4 4 1 1
BITMAP
30
C0
E0
30
ENDCHAR

STARTCHAR equal
ENCODING 61
SWIDTH 667 0
DWIDTH 5 0
BBX 4 3 1 1
BITMAP
F0
00
F0
ENDCHAR

STARTCHAR greater
ENCODING 62
SWIDTH 667 0
DWIDTH 5 0
BBX 4 4 1 1
BITMAP
C0
30
30
C0
ENDCHAR

STARTCHAR question
ENCODING 63
SWIDTH 396 0
DWIDTH 3 0
BBX 2 6 1 0
BITMAP
40
40
40
40
40
80
ENDCHAR

STARTCHAR at
ENCODING 64
SWIDTH 917 0
DWIDTH 7 0
BBX 7 9 1 -2
BITMAP
38
44
9A
AC
AC
B4
AE
44
38
ENDCHAR

STARTCHAR A
ENCODING 65
SWIDTH 698 0
DWIDTH 6 0
BBX 6 6 0 0
BITMAP
08
18
38
48
48
DC
ENDCHAR

STARTCHAR B
ENCODING 66
SWIDTH 615 0
DWIDTH 5 0
BBX 5 6 0 0
BITMAP
70
68
70
50
50
F0
ENDCHAR

STARTCHAR C
ENCODING 67
SWIDTH 729 0
DWIDTH 6 0
BBX 5 6 1 0
BITMAP
38
48
80
80
88
70
ENDCHAR

STARTCHAR D
ENCODING 68
SWIDTH 760 0
DWIDTH 6 0
BBX 6 6 0 0
BITMAP
78
44
44
44
48
F0
ENDCHAR

STARTCHAR E
ENCODING 69
SWIDTH 625 0
DWIDTH 5 0
BBX 5 6 0 0
BITMAP
78
28
70
50
48
F0
ENDCHAR

STARTCHAR F
ENCODING 70
SWIDTH 563 0
DWIDTH 5 0
BBX 5 6 0 0
BITMAP
78
48
70
50
40
C0
ENDCHAR

STARTCHAR G
ENCODING 71
SWIDTH 781 0
DWIDTH 6 0
BBX 5 6 1 0
BITMAP
38
48
80
88
88
78
ENDCHAR

STARTCHAR H
ENCODING 72
SWIDTH 760 0
DWIDTH 6 0
BBX 7 6 0 0
BITMAP
66
24
7C
48
48
CC
ENDCHAR

STARTCHAR I
ENCODING 73
SWIDTH 323 0
DWIDTH 3 0
BBX 3 6 0 0
BITMAP
60
40
40
40
40
C0
ENDCHAR

STARTCHAR J
ENCODING 74
SWIDTH 302 0
DWIDTH 2 0
BBX 4 8 0 -2
BITMAP
30
10
10
20
20
20
20
C0
ENDCHAR

STARTCHAR K
ENCODING 75
SWIDTH 708 0
DWIDTH 6 0
BBX 6 6 0 0
BITMAP
6C
38
60
50
58
C8
ENDCHAR

STARTCHAR L
ENCODING 76
SWIDTH 583 0
DWIDTH 5 0
BBX 5 6 0 0
BITMAP
60
40
40
40
48
F0
ENDCHAR

STARTCHAR M
ENCODING 77
SWIDTH 854 0
DWIDTH 7 0
BBX 7 6 0 0
BITMAP
62
26
6C
7C
54
DE
ENDCHAR

STARTCHAR N
ENCODING 78
SWIDTH 771 0
DWIDTH 6 0
BBX 7 6 0 0
BITMAP
46
64
74
54
48
C8
ENDCHAR

STARTCHAR O
ENCODING 79
SWIDTH 792 0
DWIDTH 6 0
BBX 6 6 1 0
BITMAP
78
48
88
84
88
70
ENDCHAR

STARTCHAR P
ENCODING 80
SWIDTH 563 0
DWIDTH 5 0
BBX 5 6 0 0
BITMAP
70
48
50
70
40
C0
ENDCHAR

STARTCHAR Q
ENCODING 81
SWIDTH 792 0
DWIDTH 6 0
BBX 6 7 1 -1
BITMAP
30
48
84
84
88
70
38
ENDCHAR

STARTCHAR R
ENCODING 82
SWIDTH 698 0
DWIDTH 6 0
BBX 5 6 0 0
BITMAP
70
48
70
50
50
C8
ENDCHAR

STARTCHAR S
ENCODING 83
SWIDTH 531 0
DWIDTH 4 0
BBX 4 6 1 0
BITMAP
70
50
40
20
90
E0
ENDCHAR

STARTCHAR T
ENCODING 84
SWIDTH 656 0
DWIDTH 5 0
BBX 5 6 1 0
BITMAP
F8
A8
20
40
40
60
ENDCHAR

STARTCHAR U
ENCODING 85
SWIDTH 729 0
DWIDTH 6 0
BBX 6 6 1 0
BITMAP
CC
88
88
90
90
70
ENDCHAR

STARTCHAR V
ENCODING 86
SWIDTH 698 0
DWIDTH 6 0
BBX 5 6 1 0
BITMAP
C8
90
90
A0
C0
80
ENDCHAR

STARTCHAR W
ENCODING 87
SWIDTH 958 0
DWIDTH 8 0
BBX 8 6 1 0
BITMAP
DB
92
96
B4
D8
90
ENDCHAR

STARTCHAR X
ENCODING 88
SWIDTH 688 0
DWIDTH 6 0
BBX 6 6 0 0
BITMAP
6C
28
30
30
48
C8
ENDCHAR

STARTCHAR Y
ENCODING 89
SWIDTH 625 0
DWIDTH 5 0
BBX 5 6 1 0
BITMAP
C8
88
50
60
40
E0
ENDCHAR

STARTCHAR Z
ENCODING 90
SWIDTH 688 0
DWIDTH 6 0
BBX 5 6 1 0
BITMAP
78
50
20
40
48
F8
ENDCHAR

STARTCHAR bracketleft
ENCODING 91
SWIDTH 302 0
DWIDTH 2 0
BBX 4 8 1 -2
BITMAP
30
20
60
40
40
40
40
E0
ENDCHAR

STARTCHAR backslash
ENCODING 92
SWIDTH 219 0
DWIDTH 2 0
BBX 1 6 1 0
BITMAP
80
80
80
80
80
80
ENDCHAR

STARTCHAR bracketright
ENCODING 93
SWIDTH 302 0
DWIDTH 2 0
BBX 3 8 0 -2
BITMAP
60
20
20
20
20
40
40
C0
ENDCHAR

STARTCHAR asciicircum
ENCODING 94
SWIDTH 427 0
DWIDTH 3 0
BBX 4 3 0 3
BITMAP
40
60
B0
ENDCHAR

STARTCHAR underscore
ENCODING 95
SWIDTH 500 0
DWIDTH 4 0
BBX 4 1 0 -2
BITMAP
F0
ENDCHAR

STARTCHAR quoteleft
ENCODING 96
SWIDTH 292 0
DWIDTH 2 0
BBX 1 2 2 4
BITMAP
80
80
ENDCHAR

STARTCHAR a
ENCODING 97
SWIDTH 406 0
DWIDTH 3 0
BBX 3 4 0 0
BITMAP
60
C0
C0
E0
ENDCHAR

STARTCHAR b
ENCODING 98
SWIDTH 406 0
DWIDTH 3 0
BBX 3 6 0 0
BITMAP
80
80
E0
A0
A0
C0
ENDCHAR

STARTCHAR c
ENCODING 99
SWIDTH 271 0
DWIDTH 2 0
BBX 3 4 0 0
BITMAP
40
80
E0
80
ENDCHAR

STARTCHAR d
ENCODING 100
SWIDTH 438 0
DWIDTH 4 0
BBX 3 6 1 0
BITMAP
20
20
60
C0
C0
E0
ENDCHAR

STARTCHAR e
ENCODING 101
SWIDTH 344 0
DWIDTH 3 0
BBX 3 4 0 0
BITMAP
40
C0
A0
C0
ENDCHAR

STARTCHAR f
ENCODING 102
SWIDTH 229 0
DWIDTH 2 0
BBX 5 8 0 -2
BITMAP
18
10
30
20
20
20
20
C0
ENDCHAR

STARTCHAR g
ENCODING 103
SWIDTH 375 0
DWIDTH 3 0
BBX 4 6 0 -2
BITMAP
30
50
50
60
A0
E0
ENDCHAR

STARTCHAR h
ENCODING 104
SWIDTH 458 0
DWIDTH 4 0
BBX 4 7 0 -1
BITMAP
C0
40
60
E0
A0
B0
20
ENDCHAR

STARTCHAR i
ENCODING 105
SWIDTH 240 0
DWIDTH 2 0
BBX 1 6 0 0
BITMAP
80
00
80
80
80
80
ENDCHAR

STARTCHAR j
ENCODING 106
SWIDTH 240 0
DWIDTH 2 0
BBX 3 8 0 -2
BITMAP
20
00
20
20
20
20
40
80
ENDCHAR

STARTCHAR k
ENCODING 107
SWIDTH 458 0
DWIDTH 4 0
BBX 3 6 0 0
BITMAP
80
80
E0
E0
C0
A0
ENDCHAR

STARTCHAR l
ENCODING 108
SWIDTH 229 0
DWIDTH 2 0
BBX 1 6 1 0
BITMAP
80
80
80
80
80
80
ENDCHAR

STARTCHAR m
ENCODING 109
SWIDTH 677 0
DWIDTH 5 0
BBX 6 5 0 -1
BITMAP
E8
F8
A8
AC
08
ENDCHAR

STARTCHAR n
ENCODING 110
SWIDTH 469 0
DWIDTH 4 0
BBX 3 4 0 0
BITMAP
E0
E0
A0
A0
ENDCHAR

STARTCHAR o
ENCODING 111
SWIDTH 396 0
DWIDTH 3 0
BBX 3 4 0 0
BITMAP
40
A0
A0
C0
ENDCHAR

STARTCHAR p
ENCODING 112
SWIDTH 438 0
DWIDTH 4 0
BBX 4 6 0 -2
BITMAP
30
70
50
60
40
C0
ENDCHAR

STARTCHAR q
ENCODING 113
SWIDTH 417 0
DWIDTH 3 0
BBX 3 6 0 -2
BITMAP
60
A0
C0
C0
40
60
ENDCHAR

STARTCHAR r
ENCODING 114
SWIDTH 271 0
DWIDTH 2 0
BBX 3 4 0 0
BITMAP
A0
C0
80
80
ENDCHAR

STARTCHAR s
ENCODING 115
SWIDTH 302 0
DWIDTH 2 0
BBX 2 4 0 0
BITMAP
40
40
40
C0
ENDCHAR

STARTCHAR t
ENCODING 116
SWIDTH 260 0
DWIDTH 2 0
BBX 2 5 1 0
BITMAP
40
C0
80
80
80
ENDCHAR

STARTCHAR u
ENCODING 117
SWIDTH 469 0
DWIDTH 4 0
BBX 3 4 0 0
BITMAP
A0
A0
A0
E0
ENDCHAR

STARTCHAR v
ENCODING 118
SWIDTH 406 0
DWIDTH 3 0
BBX 3 4 0 0
BITMAP
A0
A0
C0
C0
ENDCHAR

STARTCHAR w
ENCODING 119
SWIDTH 604 0
DWIDTH 5 0
BBX 5 4 0 0
BITMAP
A8
A8
F0
E0
ENDCHAR

STARTCHAR x
ENCODING 120
SWIDTH 490 0
DWIDTH 4 0
BBX 4 4 0 0
BITMAP
70
E0
60
A0
ENDCHAR

STARTCHAR y
ENCODING 121
SWIDTH 438 0
DWIDTH 4 0
BBX 3 6 0 -2
BITMAP
60
E0
40
40
80
C0
ENDCHAR

STARTCHAR z
ENCODING 122
SWIDTH 500 0
DWIDTH 4 0
BBX 5 4 1 0
BITMAP
78
38
70
90
ENDCHAR

STARTCHAR braceleft
ENCODING 123
SWIDTH 396 0
DWIDTH 3 0
BBX 3 8 1 -2
BITMAP
20
40
40
C0
80
80
80
80
ENDCHAR

STARTCHAR bar
ENCODING 124
SWIDTH 510 0
DWIDTH 4 0
BBX 3 8 1 -2
BITMAP
60
40
40
40
40
80
80
80
ENDCHAR

STARTCHAR braceright
ENCODING 125
SWIDTH 396 0
DWIDTH 3 0
BBX 3 8 0 -2
BITMAP
20
20
20
20
20
40
40
80
ENDCHAR

STARTCHAR asciitilde
ENCODING 126
SWIDTH 542 0
DWIDTH 4 0
BBX 4 2 1 3
BITMAP
D0
B0
ENDCHAR

STARTCHAR exclamdown
ENCODING 161
SWIDTH 292 0
DWIDTH 2 0
BBX 2 6 0 -2
BITMAP
40
80
80
80
80
80
ENDCHAR

STARTCHAR cent
ENCODING 162
SWIDTH 271 0
DWIDTH 2 0
BBX 2 8 0 -2
BITMAP
40
40
40
C0
C0
C0
80
80
ENDCHAR

STARTCHAR sterling
ENCODING 163
SWIDTH 729 0
DWIDTH 6 0
BBX 6 8 0 -2
BITMAP
0C
10
10
20
20
68
68
98
ENDCHAR

STARTCHAR currency
ENCODING 164
SWIDTH 667 0
DWIDTH 5 0
BBX 4 4 1 1
BITMAP
F0
90
90
F0
ENDCHAR

STARTCHAR yen
ENCODING 165
SWIDTH 500 0
DWIDTH 4 0
BBX 5 6 0 0
BITMAP
78
F8
F0
40
40
E0
ENDCHAR

STARTCHAR brokenbar
ENCODING 166
SWIDTH 510 0
DWIDTH 4 0
BBX 3 8 1 -2
BITMAP
20
40
40
40
00
C0
80
80
ENDCHAR

STARTCHAR section
ENCODING 167
SWIDTH 479 0
DWIDTH 4 0
BBX 5 8 0 -2
BITMAP
38
60
60
60
60
50
20
C0
ENDCHAR

STARTCHAR dieresis
ENCODING 168
SWIDTH 333 0
DWIDTH 3 0
BBX 2 1 1 4
BITMAP
C0
ENDCHAR

STARTCHAR copyright
ENCODING 169
SWIDTH 760 0
DWIDTH 6 0
BBX 6 6 1 0
BITMAP
78
EC
A4
AC
DC
78
ENDCHAR

STARTCHAR ordfeminine
ENCODING 170
SWIDTH 260 0
DWIDTH 2 0
BBX 2 3 1 3
BITMAP
C0
C0
C0
ENDCHAR

STARTCHAR guillemotleft
ENCODING 171
SWIDTH 438 0
DWIDTH 4 0
BBX 3 3 1 1
BITMAP
A0
A0
C0
ENDCHAR

STARTCHAR logicalnot
ENCODING 172
SWIDTH 667 0
DWIDTH 5 0
BBX 4 3 1 1
BITMAP
F0
10
10
ENDCHAR

STARTCHAR hyphen
ENCODING 173
SWIDTH 333 0
DWIDTH 3 0
BBX 2 1 1 1
BITMAP
C0
ENDCHAR

STARTCHAR registered
ENCODING 174
SWIDTH 760 0
DWIDTH 6 0
BBX 6 6 1 0
BITMAP
78
EC
B4
AC
FC
78
ENDCHAR

STARTCHAR macron
ENCODING 175
SWIDTH 333 0
DWIDTH 3 0
BBX 2 1 1 5
BITMAP
C0
ENDCHAR

STARTCHAR degree
ENCODING 176
SWIDTH 396 0
DWIDTH 3 0
BBX 3 3 1 3
BITMAP
E0
A0
E0
ENDCHAR

STARTCHAR plusminus
ENCODING 177
SWIDTH 667 0
DWIDTH 5 0
BBX 5 6 0 0
BITMAP
20
20
F8
20
20
F8
ENDCHAR

STARTCHAR twosuperior
ENCODING 178
SWIDTH 313 0
DWIDTH 2 0
BBX 2 3 -2 3
BITMAP
C0
40
C0
ENDCHAR

STARTCHAR threesuperior
ENCODING 179
SWIDTH 313 0
DWIDTH 2 0
BBX 2 3 -2 3
BITMAP
40
40
C0
ENDCHAR

STARTCHAR acute
ENCODING 180
SWIDTH 333 0
DWIDTH 3 0
BBX 2 2 1 4
BITMAP
C0
80
ENDCHAR

STARTCHAR mu
ENCODING 181
SWIDTH 500 0
DWIDTH 4 0
BBX 4 6 0 -2
BITMAP
50
50
70
50
80
80
ENDCHAR

STARTCHAR paragraph
ENCODING 182
SWIDTH 448 0
DWIDTH 4 0
BBX 4 8 1 -2
BITMAP
70
F0
E0
E0
60
60
60
C0
ENDCHAR

STARTCHAR periodcentered
ENCODING 183
SWIDTH 292 0
DWIDTH 2 0
BBX 1 1 1 2
BITMAP
80
ENDCHAR

STARTCHAR cedilla
ENCODING 184
SWIDTH 333 0
DWIDTH 3 0
BBX 1 2 0 -2
BITMAP
80
80
ENDCHAR

STARTCHAR onesuperior
ENCODING 185
SWIDTH 313 0
DWIDTH 2 0
BBX 1 3 -2 3
BITMAP
80
80
80
ENDCHAR

STARTCHAR ordmasculine
ENCODING 186
SWIDTH 260 0
DWIDTH 2 0
BBX 2 3 1 3
BITMAP
C0
C0
80
ENDCHAR

STARTCHAR guillemotright
ENCODING 187
SWIDTH 438 0
DWIDTH 4 0
BBX 3 3 1 1
BITMAP
E0
C0
40
ENDCHAR

STARTCHAR onequarter
ENCODING 188
SWIDTH 823 0
DWIDTH 6 0
BBX 6 6 1 0
BITMAP
8C
90
90
28
48
98
ENDCHAR

STARTCHAR onehalf
ENCODING 189
SWIDTH 823 0
DWIDTH 6 0
BBX 6 6 1 0
BITMAP
8C
90
90
38
48
98
ENDCHAR

STARTCHAR threequarters
ENCODING 190
SWIDTH 823 0
DWIDTH 6 0
BBX 7 6 2 0
BITMAP
46
48
C8
14
24
4C
ENDCHAR

STARTCHAR questiondown
ENCODING 191
SWIDTH 396 0
DWIDTH 3 0
BBX 2 6 0 -2
BITMAP
40
40
40
80
80
C0
ENDCHAR

STARTCHAR Agrave
ENCODING 192
SWIDTH 698 0
DWIDTH 6 0
BBX 6 8 0 0
BITMAP
08
08
08
18
38
48
48
DC
ENDCHAR

STARTCHAR Aacute
ENCODING 193
SWIDTH 698 0
DWIDTH 6 0
BBX 6 8 0 0
BITMAP
0C
08
08
18
38
48
48
DC
ENDCHAR

STARTCHAR Acircumflex
ENCODING 194
SWIDTH 698 0
DWIDTH 6 0
BBX 6 8 0 0
BITMAP
04
0C
08
18
38
48
48
DC
ENDCHAR

STARTCHAR Atilde
ENCODING 195
SWIDTH 698 0
DWIDTH 6 0
BBX 6 8 0 0
BITMAP
0C
0C
08
18
38
48
48
DC
ENDCHAR

STARTCHAR Adieresis
ENCODING 196
SWIDTH 698 0
DWIDTH 6 0
BBX 6 7 0 0
BITMAP
0C
08
18
38
48
48
DC
ENDCHAR

STARTCHAR Aring
ENCODING 197
SWIDTH 698 0
DWIDTH 6 0
BBX 6 8 0 0
BITMAP
0C
0C
08
18
38
48
48
DC
ENDCHAR

STARTCHAR AE
ENCODING 198
SWIDTH 948 0
DWIDTH 8 0
BBX 8 6 0 0
BITMAP
0F
19
2E
3A
52
DE
ENDCHAR

STARTCHAR Ccedilla
ENCODING 199
SWIDTH 729 0
DWIDTH 6 0
BBX 5 8 1 -2
BITMAP
38
48
80
80
88
70
40
40
ENDCHAR

STARTCHAR Egrave
ENCODING 200
SWIDTH 625 0
DWIDTH 5 0
BBX 5 8 0 0
BITMAP
10
10
78
28
70
50
48
F0
ENDCHAR

STARTCHAR Eacute
ENCODING 201
SWIDTH 625 0
DWIDTH 5 0
BBX 5 8 0 0
BITMAP
18
10
78
28
70
50
48
F0
ENDCHAR

STARTCHAR Ecircumflex
ENCODING 202
SWIDTH 625 0
DWIDTH 5 0
BBX 5 8 0 0
BITMAP
08
18
78
28
70
50
48
F0
ENDCHAR

STARTCHAR Edieresis
ENCODING 203
SWIDTH 625 0
DWIDTH 5 0
BBX 5 7 0 0
BITMAP
18
78
28
70
50
48
F0
ENDCHAR

STARTCHAR Igrave
ENCODING 204
SWIDTH 323 0
DWIDTH 3 0
BBX 3 8 0 0
BITMAP
20
20
60
40
40
40
40
C0
ENDCHAR

STARTCHAR Iacute
ENCODING 205
SWIDTH 323 0
DWIDTH 3 0
BBX 4 8 0 0
BITMAP
30
20
60
40
40
40
40
C0
ENDCHAR

STARTCHAR Icircumflex
ENCODING 206
SWIDTH 323 0
DWIDTH 3 0
BBX 4 8 0 0
BITMAP
10
30
60
40
40
40
40
C0
ENDCHAR

STARTCHAR Idieresis
ENCODING 207
SWIDTH 323 0
DWIDTH 3 0
BBX 4 7 0 0
BITMAP
30
60
40
40
40
40
C0
ENDCHAR

STARTCHAR Eth
ENCODING 208
SWIDTH 760 0
DWIDTH 6 0
BBX 6 6 0 0
BITMAP
78
44
E4
44
88
F0
ENDCHAR

STARTCHAR Ntilde
ENCODING 209
SWIDTH 771 0
DWIDTH 6 0
BBX 7 8 0 0
BITMAP
18
18
46
64
74
54
48
C8
ENDCHAR

STARTCHAR Ograve
ENCODING 210
SWIDTH 792 0
DWIDTH 6 0
BBX 6 8 1 0
BITMAP
10
10
78
48
88
84
88
70
ENDCHAR

STARTCHAR Oacute
ENCODING 211
SWIDTH 792 0
DWIDTH 6 0
BBX 6 8 1 0
BITMAP
18
10
78
48
88
84
88
70
ENDCHAR

STARTCHAR Ocircumflex
ENCODING 212
SWIDTH 792 0
DWIDTH 6 0
BBX 6 8 1 0
BITMAP
08
18
78
48
88
84
88
70
ENDCHAR

STARTCHAR Otilde
ENCODING 213
SWIDTH 792 0
DWIDTH 6 0
BBX 6 8 1 0
BITMAP
18
18
78
48
88
84
88
70
ENDCHAR

STARTCHAR Odieresis
ENCODING 214
SWIDTH 792 0
DWIDTH 6 0
BBX 6 7 1 0
BITMAP
18
78
48
88
84
88
70
ENDCHAR

STARTCHAR multiply
ENCODING 215
SWIDTH 668 0
DWIDTH 5 0
BBX 4 5 1 1
BITMAP
90
60
60
60
90
ENDCHAR

STARTCHAR Oslash
ENCODING 216
SWIDTH 792 0
DWIDTH 6 0
BBX 6 6 1 0
BITMAP
7C
48
98
A4
A8
70
ENDCHAR

STARTCHAR Ugrave
ENCODING 217
SWIDTH 729 0
DWIDTH 6 0
BBX 6 8 1 0
BITMAP
10
10
CC
88
88
90
90
70
ENDCHAR

STARTCHAR Uacute
ENCODING 218
SWIDTH 729 0
DWIDTH 6 0
BBX 6 8 1 0
BITMAP
18
10
CC
88
88
90
90
70
ENDCHAR

STARTCHAR Ucircumflex
ENCODING 219
SWIDTH 729 0
DWIDTH 6 0
BBX 6 8 1 0
BITMAP
08
18
CC
88
88
90
90
70
ENDCHAR

STARTCHAR Udieresis
ENCODING 220
SWIDTH 729 0
DWIDTH 6 0
BBX 6 7 1 0
BITMAP
18
CC
88
88
90
90
70
ENDCHAR

STARTCHAR Yacute
ENCODING 221
SWIDTH 625 0
DWIDTH 5 0
BBX 5 8 1 0
BITMAP
18
10
C8
88
50
60
40
E0
ENDCHAR

STARTCHAR Thorn
ENCODING 222
SWIDTH 563 0
DWIDTH 5 0
BBX 4 6 0 0
BITMAP
60
40
70
50
70
C0
ENDCHAR

STARTCHAR germandbls
ENCODING 223
SWIDTH 438 0
DWIDTH 4 0
BBX 5 8 0 -2
BITMAP
18
28
28
28
28
30
20
C0
ENDCHAR

STARTCHAR agrave
ENCODING 224
SWIDTH 406 0
DWIDTH 3 0
BBX 3 6 0 0
BITMAP
40
40
60
C0
C0
E0
ENDCHAR

STARTCHAR aacute
ENCODING 225
SWIDTH 406 0
DWIDTH 3 0
BBX 3 6 0 0
BITMAP
60
40
60
C0
C0
E0
ENDCHAR

STARTCHAR acircumflex
ENCODING 226
SWIDTH 406 0
DWIDTH 3 0
BBX 3 6 0 0
BITMAP
20
60
60
C0
C0
E0
ENDCHAR

STARTCHAR atilde
ENCODING 227
SWIDTH 406 0
DWIDTH 3 0
BBX 3 6 0 0
BITMAP
60
60
60
C0
C0
E0
ENDCHAR

STARTCHAR adieresis
ENCODING 228
SWIDTH 406 0
DWIDTH 3 0
BBX 3 5 0 0
BITMAP
60
60
C0
C0
E0
ENDCHAR

STARTCHAR aring
ENCODING 229
SWIDTH 406 0
DWIDTH 3 0
BBX 3 6 0 0
BITMAP
60
60
60
C0
C0
E0
ENDCHAR

STARTCHAR ae
ENCODING 230
SWIDTH 573 0
DWIDTH 5 0
BBX 4 4 0 0
BITMAP
70
B0
C0
B0
ENDCHAR

STARTCHAR ccedilla
ENCODING 231
SWIDTH 271 0
DWIDTH 2 0
BBX 3 6 0 -2
BITMAP
40
80
E0
80
80
80
ENDCHAR

STARTCHAR egrave
ENCODING 232
SWIDTH 344 0
DWIDTH 3 0
BBX 3 6 0 0
BITMAP
40
40
40
C0
A0
C0
ENDCHAR

STARTCHAR eacute
ENCODING 233
SWIDTH 344 0
DWIDTH 3 0
BBX 3 6 0 0
BITMAP
60
40
40
C0
A0
C0
ENDCHAR

STARTCHAR ecircumflex
ENCODING 234
SWIDTH 344 0
DWIDTH 3 0
BBX 3 6 0 0
BITMAP
20
60
40
C0
A0
C0
ENDCHAR

STARTCHAR edieresis
ENCODING 235
SWIDTH 344 0
DWIDTH 3 0
BBX 3 5 0 0
BITMAP
60
40
C0
A0
C0
ENDCHAR

STARTCHAR igrave
ENCODING 236
SWIDTH 240 0
DWIDTH 2 0
BBX 1 6 0 0
BITMAP
80
80
80
80
80
80
ENDCHAR

STARTCHAR iacute
ENCODING 237
SWIDTH 240 0
DWIDTH 2 0
BBX 3 6 0 0
BITMAP
60
40
80
80
80
80
ENDCHAR

STARTCHAR icircumflex
ENCODING 238
SWIDTH 240 0
DWIDTH 2 0
BBX 2 6 0 0
BITMAP
40
C0
80
80
80
80
ENDCHAR

STARTCHAR idieresis
ENCODING 239
SWIDTH 240 0
DWIDTH 2 0
BBX 2 5 0 0
BITMAP
C0
80
80
80
80
ENDCHAR

STARTCHAR eth
ENCODING 240
SWIDTH 417 0
DWIDTH 3 0
BBX 4 6 0 0
BITMAP
70
60
60
A0
A0
C0
ENDCHAR

STARTCHAR ntilde
ENCODING 241
SWIDTH 469 0
DWIDTH 4 0
BBX 3 6 0 0
BITMAP
60
60
E0
E0
A0
A0
ENDCHAR

STARTCHAR ograve
ENCODING 242
SWIDTH 396 0
DWIDTH 3 0
BBX 3 6 0 0
BITMAP
40
40
40
A0
A0
C0
ENDCHAR

STARTCHAR oacute
ENCODING 243
SWIDTH 396 0
DWIDTH 3 0
BBX 3 6 0 0
BITMAP
60
40
40
A0
A0
C0
ENDCHAR

STARTCHAR ocircumflex
ENCODING 244
SWIDTH 396 0
DWIDTH 3 0
BBX 3 6 0 0
BITMAP
20
60
40
A0
A0
C0
ENDCHAR

STARTCHAR otilde
ENCODING 245
SWIDTH 396 0
DWIDTH 3 0
BBX 3 6 0 0
BITMAP
60
60
40
A0
A0
C0
ENDCHAR

STARTCHAR odieresis
ENCODING 246
SWIDTH 396 0
DWIDTH 3 0
BBX 3 5 0 0
BITMAP
60
40
A0
A0
C0
ENDCHAR

STARTCHAR divide
ENCODING 247
SWIDTH 668 0
DWIDTH 5 0
BBX 4 5 1 1
BITMAP
40
00
F0
00
40
ENDCHAR

STARTCHAR oslash
ENCODING 248
SWIDTH 396 0
DWIDTH 3 0
BBX 3 4 0 0
BITMAP
60
E0
A0
C0
ENDCHAR

STARTCHAR ugrave
ENCODING 249
SWIDTH 469 0
DWIDTH 4 0
BBX 3 6 0 0
BITMAP
40
40
A0
A0
A0
E0
ENDCHAR

STARTCHAR uacute
ENCODING 250
SWIDTH 469 0
DWIDTH 4 0
BBX 4 6 0 0
BITMAP
30
20
A0
A0
A0
E0
ENDCHAR

STARTCHAR ucircumflex
ENCODING 251
SWIDTH 469 0
DWIDTH 4 0
BBX 3 6 0 0
BITMAP
20
60
A0
A0
A0
E0
ENDCHAR

STARTCHAR udieresis
ENCODING 252
SWIDTH 469 0
DWIDTH 4 0
BBX 3 5 0 0
BITMAP
60
A0
A0
A0
E0
ENDCHAR

STARTCHAR yacute
ENCODING 253
SWIDTH 438 0
DWIDTH 4 0
BBX 4 8 0 -2
BITMAP
30
20
60
E0
40
40
80
C0
ENDCHAR

STARTCHAR thorn
ENCODING 254
SWIDTH 438 0
DWIDTH 4 0
BBX 4 8 0 -2
BITMAP
20
60
30
70
50
60
40
C0
ENDCHAR

STARTCHAR ydieresis
ENCODING 255
SWIDTH 438 0
DWIDTH 4 0
BBX 3 7 0 -2
BITMAP
60
60
E0
40
40
80
C0
ENDCHAR
ENDFONT
